<svg width="24" height="24" viewBox="0 0 24 24" fill="none" xmlns="http://www.w3.org/2000/svg">
<g clip-path="url(#clip0_568_293)">
<path d="M12 0C5.373 0 0 5.373 0 12C0 18.627 5.373 24 12 24C18.627 24 24 18.627 24 12C24 5.373 18.627 0 12 0ZM17.886 7.1475L16.143 9.9405L14.9805 11.8035C14.985 11.8695 15 11.9325 15 12C15 13.6575 13.6575 15 12 15C11.9325 15 11.8695 14.985 11.8035 14.9805L9.939 16.143L7.1475 17.886C7.00344 17.9753 6.83349 18.0136 6.66504 17.9945C6.49659 17.9755 6.33947 17.9003 6.219 17.781C6.0989 17.6613 6.02308 17.5044 6.00399 17.3359C5.98491 17.1674 6.02371 16.9975 6.114 16.854L7.857 14.061L9.0195 12.198C9.015 12.1305 9 12.0675 9 12C9 10.3425 10.3425 9 12 9C12.0675 9 12.1305 9.015 12.1965 9.0195L14.061 7.857L16.8525 6.114C16.9963 6.02443 17.1662 5.9862 17.3346 6.00554C17.5029 6.02488 17.6597 6.10064 17.7795 6.2205C18.0285 6.4665 18.072 6.8505 17.886 7.1475ZM10.5 12C10.5 12.197 10.5388 12.392 10.6142 12.574C10.6896 12.756 10.8001 12.9214 10.9393 13.0607C11.0786 13.1999 11.244 13.3104 11.426 13.3858C11.608 13.4612 11.803 13.5 12 13.5C12.3978 13.5 12.7794 13.342 13.0607 13.0607C13.1999 12.9214 13.3104 12.756 13.3858 12.574C13.4612 12.392 13.5 12.197 13.5 12C13.5 11.6022 13.342 11.2206 13.0607 10.9393C12.7794 10.658 12.3978 10.5 12 10.5C11.6022 10.5 11.2206 10.658 10.9393 10.9393C10.658 11.2206 10.5 11.6022 10.5 12Z" fill="white"/>
</g>
<defs>
<clipPath id="clip0_568_293">
<rect width="24" height="24" fill="white"/>
</clipPath>
</defs>
</svg>
