<svg width="515" height="190" viewBox="0 0 515 190" fill="none" xmlns="http://www.w3.org/2000/svg">
<path fill-rule="evenodd" clip-rule="evenodd" d="M371.163 0C371.163 4.06721 367.866 7.36434 363.799 7.36434C359.731 7.36434 356.434 4.06721 356.434 0H10C4.47715 0 0 4.47715 0 10V180C0 185.523 4.47714 190 9.99999 190L356.434 190C356.434 185.933 359.731 182.636 363.799 182.636C367.866 182.636 371.163 185.933 371.163 190L504.031 190C509.554 190 514.031 185.523 514.031 180V10C514.031 4.47715 509.554 0 504.031 0H371.163Z" fill="white"/>
</svg>
