<svg width="21" height="15" viewBox="0 0 21 15" fill="none" xmlns="http://www.w3.org/2000/svg">
<path d="M10.5 15C4.51056 15 0 12 0 7.5C0 3 4.51056 0 10.5 0C16.4894 0 21 3 21 7.5C21 12 16.4894 15 10.5 15ZM10.5 13.3269C15.4173 13.3269 19.1514 10.9808 19.1514 7.5C19.1514 4.01923 15.4173 1.67308 10.5 1.67308C5.58275 1.67308 1.84859 4.01923 1.84859 7.5C1.84859 10.9808 5.58275 13.3269 10.5 13.3269ZM9.87148 11.2115V6.07692L6.98768 7.78846V5.59615L10.1673 3.61538H11.868V11.2115H9.87148Z" fill="#CA3525"/>
</svg>
