<svg width="96" height="29" viewBox="0 0 96 29" fill="none" xmlns="http://www.w3.org/2000/svg">
<path d="M0.76 28V-1.90735e-06H6.44V28H0.76ZM11.8088 28V8H17.2088V11.68C18.8088 9.24 21.5688 7.6 26.1288 7.6C32.3288 7.6 36.3688 11.16 36.3688 17.04V28H30.9688V18.12C30.9688 13.96 29.1688 11.96 25.0488 11.96H24.3288C20.8488 11.96 17.2088 14.56 17.2088 19.12V28H11.8088ZM44.7306 28V12.36H38.2906V8H44.7306V5.4C44.7306 1.8 46.8106 -1.90735e-06 50.8906 -1.90735e-06H58.7306V4.68H51.8506C50.6506 4.68 50.1706 5.12 50.1706 6.32V8H57.2106V12.36H50.1706V28H44.7306ZM71.7725 28.4C63.8925 28.4 57.8525 24.08 57.8525 18C57.8525 11.88 63.8925 7.6 71.7725 7.6C79.6525 7.6 85.7725 11.88 85.7725 18C85.7725 24.08 79.6525 28.4 71.7725 28.4ZM71.4525 24.04H72.1725C77.2125 24.04 80.2925 21.6 80.2925 18C80.2925 14.4 77.2125 11.96 72.1725 11.96H71.4525C66.4525 11.96 63.3325 14.4 63.3325 18C63.3325 21.6 66.4525 24.04 71.4525 24.04ZM89.1834 28V22.12H95.5834V28H89.1834Z" fill="white"/>
</svg>
