<svg width="352" height="111" viewBox="0 0 352 111" fill="none" xmlns="http://www.w3.org/2000/svg">
<g clip-path="url(#clip0_1231_15)">
<path d="M274.713 107V93.7243H298.174C301.608 93.7243 302.752 92.5799 302.752 89.1466V80.7921L268.533 26.8888H286.959L310.42 64.7699L333.309 26.8888H351.277L318.202 80.4488V94.9832C318.202 102.994 314.082 107 306.071 107H274.713Z" fill="white"/>
<path d="M143.725 84.1114V26.8892H159.175V35.8159C163.295 29.5214 170.505 25.7448 181.491 25.7448C192.707 25.7448 201.977 29.7503 206.784 38.3336C212.162 29.407 222.92 25.7448 235.166 25.7448C257.94 25.7448 265.608 37.647 265.608 52.9825V84.1114H250.158V53.5548C250.158 44.5136 245.58 38.2192 233.335 38.2192H231.275C219.372 38.2192 212.391 45.7725 212.391 57.5603V84.1114H196.941V53.5548C196.941 44.5136 191.448 38.2192 178.745 38.2192H176.685C165.469 38.2192 159.175 45.7725 159.175 57.5603V84.1114H143.725Z" fill="white"/>
<path d="M30.1113 84.1114V26.8892H45.5613V37.4181C50.1391 30.437 58.0358 25.7448 71.0824 25.7448C88.8213 25.7448 100.38 35.9303 100.38 52.7536V84.1114H84.9302V55.8436C84.9302 43.9414 79.7802 38.2192 67.9924 38.2192H65.9324C55.9758 38.2192 45.5613 45.6581 45.5613 58.7048V84.1114H30.1113Z" fill="white"/>
<path d="M0 20.1367V4H16.8233V20.1367H0ZM0.686667 84.1111V26.8889H16.1367V84.1111H0.686667Z" fill="white"/>
</g>
<defs>
<clipPath id="clip0_1231_15">
<rect width="351.28" height="111" fill="white"/>
</clipPath>
</defs>
</svg>
