<svg width="404" height="81" viewBox="0 0 404 81" fill="none" xmlns="http://www.w3.org/2000/svg">
<path d="M393.598 45.8081L390.37 21.1477V0.0742188H403.103V21.1477L399.875 45.8081H393.598ZM389.293 62.8463V49.6641H404V62.8463H389.293Z" fill="#161616"/>
<path d="M335.447 62.8464C329.169 62.8464 325.582 59.2594 325.582 52.9822V27.7837H312.311V18.0092H325.582V3.48193H337.688V18.0092H356.161V27.7837H337.688V49.2159C337.688 51.9061 338.585 52.8028 341.275 52.8028H358.852V62.8464H335.447Z" fill="#161616"/>
<path d="M310.631 39.9795V44.3736H265.973C267.946 50.3817 274.043 53.9687 282.204 53.9687H283.818C291.889 53.9687 295.834 51.2785 297.269 48.6779H310.182C308.478 56.4796 300.677 63.7432 283.011 63.7432C265.166 63.7432 253.06 55.0448 253.06 39.7105C253.06 25.2729 267.049 17.1125 283.011 17.1125C300.587 17.1125 310.631 26.8871 310.631 39.9795ZM266.242 35.2268H297.986C297.717 30.1153 291.889 26.8871 283.818 26.8871H282.204C273.595 26.8871 268.215 30.205 266.242 35.2268Z" fill="#161616"/>
<path d="M238.971 62.8463L217.808 42.4005L211.441 46.3462V62.8463H199.335V0.0742188H211.441V34.3298L236.37 18.0091H256.188L227.851 35.944L257.354 62.8463H238.971Z" fill="#161616"/>
<path d="M164.032 63.7432C144.752 63.7432 134.26 53.7894 134.26 40.4279C134.26 27.2458 145.379 17.1125 164.032 17.1125C180.352 17.1125 190.396 24.1072 191.831 33.7023H179.097C177.483 29.2186 172.013 27.3354 164.928 27.3354H163.314C152.015 27.3354 146.545 33.4333 146.545 40.4279C146.545 47.3328 152.015 53.5203 163.314 53.5203H164.928C172.371 53.5203 178.111 50.8301 179.007 47.1535H191.741C190.306 55.7622 182.146 63.7432 164.032 63.7432Z" fill="#161616"/>
<path d="M98.0968 63.7432C80.431 63.7432 66.8901 54.0584 66.8901 40.4279C66.8901 26.7077 80.431 17.1125 98.0968 17.1125C115.763 17.1125 129.483 26.7077 129.483 40.4279C129.483 54.0584 115.763 63.7432 98.0968 63.7432ZM97.3794 53.9687H98.9935C110.293 53.9687 117.197 48.4986 117.197 40.4279C117.197 32.3572 110.293 26.8871 98.9935 26.8871H97.3794C86.1701 26.8871 79.1755 32.3572 79.1755 40.4279C79.1755 48.4986 86.1701 53.9687 97.3794 53.9687Z" fill="#161616"/>
<path d="M0.55957 80.7813V18.0093H12.6656V24.8245C17.3287 19.8925 24.7716 17.1125 34.1874 17.1125C50.4185 17.1125 62.0762 25.5419 62.0762 40.4279C62.0762 54.3274 49.9701 63.7432 34.0081 63.7432C22.8885 63.7432 15.9836 59.7975 12.6656 56.1209V80.7813H0.55957ZM31.0488 53.9687H32.663C42.9755 53.9687 49.7908 48.4986 49.7908 40.4279C49.7908 32.3572 42.9755 26.8871 32.663 26.8871H31.0488C19.9292 26.8871 12.6656 32.3572 12.6656 40.4279C12.6656 48.4986 19.9292 53.9687 31.0488 53.9687Z" fill="#161616"/>
</svg>
