<svg width="276" height="82" viewBox="0 0 276 82" fill="none" xmlns="http://www.w3.org/2000/svg">
<path d="M215.275 81.3812V70.9789H233.658C236.349 70.9789 237.245 70.0822 237.245 67.392V60.8457L210.433 18.6091H224.87L243.253 48.2913L261.188 18.6091H275.267L249.351 60.5767V71.9654C249.351 78.2426 246.123 81.3812 239.846 81.3812H215.275Z" fill="#161616"/>
<path d="M112.638 63.4466V18.6094H124.744V25.604C127.972 20.6719 133.622 17.7126 142.231 17.7126C151.019 17.7126 158.282 20.8512 162.049 27.5768C166.263 20.5822 174.693 17.7126 184.288 17.7126C202.133 17.7126 208.141 27.0388 208.141 39.0551V63.4466H196.035V39.5035C196.035 32.4192 192.448 27.4872 182.853 27.4872H181.239C171.913 27.4872 166.443 33.4057 166.443 42.6421V63.4466H154.337V39.5035C154.337 32.4192 150.032 27.4872 140.079 27.4872H138.464C129.676 27.4872 124.744 33.4057 124.744 42.6421V63.4466H112.638Z" fill="#161616"/>
<path d="M23.6152 63.4466V18.6094H35.7213V26.8594C39.3082 21.3893 45.4958 17.7126 55.7186 17.7126C69.6182 17.7126 78.6753 25.6937 78.6753 38.8758V63.4466H66.5692V41.297C66.5692 31.9709 62.5339 27.4872 53.2974 27.4872H51.6833C43.8816 27.4872 35.7213 33.316 35.7213 43.5389V63.4466H23.6152Z" fill="#161616"/>
<path d="M0.0209961 13.3184V0.674316H13.2031V13.3184H0.0209961ZM0.559043 63.4464V18.6092H12.6651V63.4464H0.559043Z" fill="#161616"/>
</svg>
