<svg width="397" height="2" viewBox="0 0 397 2" fill="none" xmlns="http://www.w3.org/2000/svg">
<path fill-rule="evenodd" clip-rule="evenodd" d="M4.9625 2H0V0H4.9625V2ZM24.8125 2H14.8875V0H24.8125V2ZM44.6625 2H34.7375V0H44.6625V2ZM64.5125 2H54.5875V0H64.5125V2ZM84.3625 2H74.4375V0H84.3625V2ZM104.212 2H94.2875V0H104.212V2ZM124.062 2H114.137V0H124.062V2ZM143.912 2H133.987V0H143.912V2ZM163.762 2H153.837V0H163.762V2ZM183.612 2H173.687V0H183.612V2ZM203.462 2H193.537V0H203.462V2ZM223.312 2H213.387V0H223.312V2ZM243.162 2H233.237V0H243.162V2ZM263.012 2H253.087V0H263.012V2ZM282.862 2H272.937V0H282.862V2ZM302.712 2H292.787V0H302.712V2ZM322.562 2H312.637V0H322.562V2ZM342.412 2H332.487V0H342.412V2ZM362.262 2H352.337V0H362.262V2ZM382.112 2H372.188V0H382.112V2ZM397 2H392.038V0H397V2Z" fill="#E9E9E9"/>
</svg>
