<svg width="298" height="64" viewBox="0 0 298 64" fill="none" xmlns="http://www.w3.org/2000/svg">
<path d="M274.241 62.7721C267.964 62.7721 264.377 59.1852 264.377 52.908V27.7095H251.105V17.935H264.377V3.40771H276.483V17.935H294.956V27.7095H276.483V49.1416C276.483 51.8319 277.38 52.7286 280.07 52.7286H297.646V62.7721H274.241Z" fill="#161616"/>
<path d="M249.426 39.9053V44.2993H204.768C206.741 50.3075 212.839 53.8945 220.999 53.8945H222.613C230.684 53.8945 234.63 51.2043 236.064 48.6037H248.978C247.274 56.4054 239.472 63.669 221.806 63.669C203.961 63.669 191.855 54.9706 191.855 39.6363C191.855 25.1987 205.844 17.0383 221.806 17.0383C239.382 17.0383 249.426 26.8128 249.426 39.9053ZM205.037 35.1525H236.782C236.513 30.0411 230.684 26.8128 222.613 26.8128H220.999C212.39 26.8128 207.01 30.1308 205.037 35.1525Z" fill="#161616"/>
<path d="M177.766 62.772L156.603 42.3263L150.236 46.272V62.772H138.13V0H150.236V34.2556L175.166 17.9349H194.984L166.647 35.8697L196.15 62.772H177.766Z" fill="#161616"/>
<path d="M102.827 63.669C83.5471 63.669 73.0552 53.7151 73.0552 40.3537C73.0552 27.1715 84.1748 17.0383 102.827 17.0383C119.148 17.0383 129.191 24.0329 130.626 33.6281H117.892C116.278 29.1444 110.808 27.2612 103.724 27.2612H102.11C90.8107 27.2612 85.3406 33.3591 85.3406 40.3537C85.3406 47.2586 90.8107 53.4461 102.11 53.4461H103.724C111.167 53.4461 116.906 50.7559 117.803 47.0792H130.536C129.102 55.688 120.941 63.669 102.827 63.669Z" fill="#161616"/>
<path d="M52.5107 12.6441V0H65.6929V12.6441H52.5107ZM53.0488 62.772V17.9349H65.1548V62.772H53.0488Z" fill="#161616"/>
<path d="M23.136 62.7721C16.8588 62.7721 13.2718 59.1852 13.2718 52.908V27.7095H0V17.935H13.2718V3.40771H25.3778V17.935H43.8508V27.7095H25.3778V49.1416C25.3778 51.8319 26.2746 52.7286 28.9648 52.7286H46.541V62.7721H23.136Z" fill="#161616"/>
</svg>
