<svg width="131" height="23" viewBox="0 0 131 23" fill="current" xmlns="http://www.w3.org/2000/svg">
<path d="M121.848 22.676C119.581 22.676 118.285 21.3802 118.285 19.1126V10.0098H113.491V6.47883H118.285V1.23096H122.658V6.47883H129.332V10.0098H122.658V17.752C122.658 18.7239 122.982 19.0478 123.954 19.0478H130.303V22.676H121.848Z" fill="current"/>
<path d="M112.884 14.4153V16.0026H96.7512C97.4639 18.1731 99.6667 19.4688 102.615 19.4688H103.198C106.113 19.4688 107.538 18.497 108.057 17.5576H112.722C112.106 20.3759 109.288 22.9998 102.906 22.9998C96.4597 22.9998 92.0864 19.8576 92.0864 14.3181C92.0864 9.10267 97.1399 6.15479 102.906 6.15479C109.255 6.15479 112.884 9.68576 112.884 14.4153ZM96.8484 12.6984H108.316C108.219 10.852 106.113 9.68576 103.198 9.68576H102.615C99.5047 9.68576 97.5611 10.8843 96.8484 12.6984Z" fill="current"/>
<path d="M86.9955 22.676L79.3505 15.2901L77.0505 16.7154V22.676H72.6772V0H77.0505V12.3746L86.0561 6.47886H93.2152L82.9786 12.9577L93.6363 22.676H86.9955Z" fill="current"/>
<path d="M59.9258 22.9998C52.961 22.9998 49.1709 19.404 49.1709 14.5773C49.1709 9.81534 53.1878 6.15479 59.9258 6.15479C65.8216 6.15479 69.4497 8.68154 69.968 12.1477H65.368C64.7849 10.528 62.8089 9.84773 60.2497 9.84773H59.6666C55.585 9.84773 53.6089 12.0505 53.6089 14.5773C53.6089 17.0717 55.585 19.3069 59.6666 19.3069H60.2497C62.9385 19.3069 65.0117 18.335 65.3356 17.0069H69.9356C69.4173 20.1167 66.4694 22.9998 59.9258 22.9998Z" fill="current"/>
<path d="M36.1067 22.9998C29.725 22.9998 24.8335 19.5012 24.8335 14.5773C24.8335 9.62097 29.725 6.15479 36.1067 6.15479C42.4884 6.15479 47.4447 9.62097 47.4447 14.5773C47.4447 19.5012 42.4884 22.9998 36.1067 22.9998ZM35.8476 19.4688H36.4306C40.5123 19.4688 43.0067 17.4928 43.0067 14.5773C43.0067 11.6618 40.5123 9.68576 36.4306 9.68576H35.8476C31.7983 9.68576 29.2715 11.6618 29.2715 14.5773C29.2715 17.4928 31.7983 19.4688 35.8476 19.4688Z" fill="current"/>
<path d="M0 22.676V0H15.1929C20.4732 0 23.8746 2.94788 23.8746 7.22392C23.8746 11.5648 20.6028 14.4155 15.2901 14.4155H4.59999V22.676H0ZM4.59999 10.3986H14.6746C17.7197 10.3986 19.2098 9.23237 19.2098 7.22392C19.2098 5.21548 17.7197 4.01689 14.6746 4.01689H4.59999V10.3986Z" fill="current"/>
</svg>
