<svg width="555" height="111" viewBox="0 0 555 111" fill="none" xmlns="http://www.w3.org/2000/svg">
<path d="M540.563 62.8998L536.123 28.9833V0H553.636V28.9833L549.196 62.8998H540.563ZM534.643 86.3331V68.2032H554.869V86.3331H534.643Z" fill="white"/>
<path d="M460.584 86.3332C451.95 86.3332 447.017 81.3999 447.017 72.7666V38.11H428.764V24.6667H447.017V4.68677H463.667V24.6667H489.073V38.11H463.667V67.5866C463.667 71.2866 464.9 72.5199 468.6 72.5199H492.774V86.3332H460.584Z" fill="white"/>
<path d="M426.453 54.8835V60.9268H365.033C367.747 69.1901 376.133 74.1235 387.357 74.1235H389.577C400.677 74.1235 406.103 70.4235 408.077 66.8468H425.837C423.493 77.5768 412.763 87.5668 388.467 87.5668C363.923 87.5668 347.273 75.6035 347.273 54.5135C347.273 34.6569 366.513 23.4336 388.467 23.4336C412.64 23.4336 426.453 36.8769 426.453 54.8835ZM365.403 48.3469H409.063C408.693 41.3169 400.677 36.8769 389.577 36.8769H387.357C375.517 36.8769 368.117 41.4402 365.403 48.3469Z" fill="white"/>
<path d="M327.898 86.3331L298.791 58.2132L290.035 63.6398V86.3331H273.385V0H290.035V47.1132L324.321 24.6666H351.578L312.605 49.3332L353.181 86.3331H327.898Z" fill="white"/>
<path d="M224.831 87.5668C198.315 87.5668 183.885 73.8768 183.885 55.5002C183.885 37.3702 199.178 23.4336 224.831 23.4336C247.278 23.4336 261.091 33.0536 263.065 46.2502H245.551C243.331 40.0836 235.808 37.4936 226.065 37.4936H223.845C208.305 37.4936 200.781 45.8802 200.781 55.5002C200.781 64.9968 208.305 73.5068 223.845 73.5068H226.065C236.301 73.5068 244.195 69.8068 245.428 64.7501H262.941C260.968 76.5901 249.745 87.5668 224.831 87.5668Z" fill="white"/>
<path d="M134.146 87.5668C109.85 87.5668 91.2266 74.2468 91.2266 55.5002C91.2266 36.6302 109.85 23.4336 134.146 23.4336C158.443 23.4336 177.313 36.6302 177.313 55.5002C177.313 74.2468 158.443 87.5668 134.146 87.5668ZM133.16 74.1235H135.38C150.92 74.1235 160.416 66.6001 160.416 55.5002C160.416 44.4002 150.92 36.8769 135.38 36.8769H133.16C117.743 36.8769 108.123 44.4002 108.123 55.5002C108.123 66.6001 117.743 74.1235 133.16 74.1235Z" fill="white"/>
<path d="M0 111V24.6669H16.65V34.0402C23.0633 27.2569 33.2999 23.4336 46.2499 23.4336C68.5731 23.4336 84.6064 35.0269 84.6064 55.5002C84.6064 74.6168 67.9565 87.5668 46.0032 87.5668C30.7099 87.5668 21.2133 82.1401 16.65 77.0835V111H0ZM41.9332 74.1235H44.1532C58.3365 74.1235 67.7098 66.6001 67.7098 55.5002C67.7098 44.4002 58.3365 36.8769 44.1532 36.8769H41.9332C26.6399 36.8769 16.65 44.4002 16.65 55.5002C16.65 66.6001 26.6399 74.1235 41.9332 74.1235Z" fill="white"/>
</svg>
