<svg width="21" height="15" viewBox="0 0 21 15" fill="none" xmlns="http://www.w3.org/2000/svg">
<path d="M10.5 14.8235C4.51056 14.8235 0 11.8588 0 7.41177C0 2.96471 4.51056 0 10.5 0C16.4894 0 21 2.96471 21 7.41177C21 11.8588 16.4894 14.8235 10.5 14.8235ZM10.5 13.1701C15.4173 13.1701 19.1514 10.8516 19.1514 7.41177C19.1514 3.97195 15.4173 1.65339 10.5 1.65339C5.58275 1.65339 1.84859 3.97195 1.84859 7.41177C1.84859 10.8516 5.58275 13.1701 10.5 13.1701ZM6.83979 11.0606V9.2362L10.9067 6.91765C11.5907 6.51855 11.9049 6.3095 11.9049 5.92941C11.9049 5.49231 11.4982 5.16923 10.4261 5.16923H10.3521C9.3169 5.16923 8.87324 5.51131 8.85475 5.94842H6.80282C6.89525 4.42805 8.37412 3.45882 10.5555 3.45882C13.1065 3.45882 14.0678 4.69412 14.0678 5.73937C14.0678 6.65158 13.5317 7.43077 12.0158 8.24796L9.94542 9.35023H14.0123V11.0606H6.83979Z" fill="#CA3525"/>
</svg>
