<svg width="21" height="15" viewBox="0 0 21 15" fill="none" xmlns="http://www.w3.org/2000/svg">
<path d="M10.5 14.419C4.51056 14.419 0 11.5352 0 7.20951C0 2.8838 4.51056 0 10.5 0C16.4894 0 21 2.8838 21 7.20951C21 11.5352 16.4894 14.419 10.5 14.419ZM10.5 12.8107C15.4173 12.8107 19.1514 10.5555 19.1514 7.20951C19.1514 3.86356 15.4173 1.60827 10.5 1.60827C5.58275 1.60827 1.84859 3.86356 1.84859 7.20951C1.84859 10.5555 5.58275 12.8107 10.5 12.8107ZM10.2042 10.8512C8.2632 10.8512 6.54401 10.0194 6.54401 8.50352H8.61444C8.65141 8.94718 9.39085 9.20599 10.2042 9.20599H10.2967C11.5352 9.20599 11.8864 8.94718 11.8864 8.52201C11.8864 8.09683 11.4982 7.875 10.3151 7.875H8.78081V6.28521H10.2967C11.4428 6.28521 11.831 6.04489 11.831 5.6382C11.831 5.26849 11.4982 5.00968 10.4261 5.00968H10.3336C9.11356 5.00968 8.83627 5.30546 8.74384 5.67518H6.67342C6.67342 4.15933 8.37412 3.36444 10.2967 3.36444C12.1637 3.36444 13.8644 4.10387 13.8644 5.45334C13.8644 6.17429 13.5687 6.76584 12.6998 7.06162C13.5871 7.39437 13.9199 8.04137 13.9199 8.78081C13.9199 10.1673 12.0898 10.8512 10.2042 10.8512Z" fill="#CA3525"/>
</svg>
