<svg width="28" height="28" viewBox="0 0 28 28" fill="none" xmlns="http://www.w3.org/2000/svg">
<path fill-rule="evenodd" clip-rule="evenodd" d="M25.7598 17.2772L25.7598 21.2772C25.7598 21.8958 25.2583 22.3972 24.6398 22.3972L14.179 22.3972L3.35977 22.3972C2.74121 22.3972 2.23977 21.8958 2.23977 21.2772L2.23977 17.2772C4.09544 17.2772 5.59977 15.7729 5.59977 13.9172C5.59977 12.0615 4.09544 10.5572 2.23977 10.5572L2.23977 6.7201C2.23977 6.10154 2.74121 5.6001 3.35977 5.6001L3.36264 5.6001L14.0558 5.62752L24.6369 5.60013C25.2554 5.59853 25.7582 6.09867 25.7598 6.71723L25.7598 6.72013L25.7598 10.5572C23.9041 10.5572 22.3998 12.0615 22.3998 13.9172C22.3998 15.7729 23.9041 17.2772 25.7598 17.2772ZM17.9198 6.71095L17.9198 8.39722C17.9198 8.7065 18.1705 8.95722 18.4798 8.95722C18.789 8.95722 19.0398 8.7065 19.0398 8.39722L19.0398 6.71095C19.0398 6.40167 18.789 6.15095 18.4798 6.15095C18.1705 6.15095 17.9198 6.40167 17.9198 6.71095ZM19.0398 21.2772L19.0398 19.5972C19.0398 19.2879 18.789 19.0372 18.4798 19.0372C18.1705 19.0372 17.9198 19.2879 17.9198 19.5972L17.9198 21.2772C17.9198 21.5865 18.1705 21.8372 18.4798 21.8372C18.789 21.8372 19.0398 21.5865 19.0398 21.2772ZM17.9198 10.6372L17.9198 12.8772C17.9198 13.1865 18.1705 13.4372 18.4798 13.4372C18.789 13.4372 19.0398 13.1865 19.0398 12.8772L19.0398 10.6372C19.0398 10.3279 18.789 10.0772 18.4798 10.0772C18.1705 10.0772 17.9198 10.3279 17.9198 10.6372ZM17.9198 15.1172L17.9198 17.3572C17.9198 17.6665 18.1705 17.9172 18.4798 17.9172C18.789 17.9172 19.0398 17.6665 19.0398 17.3572L19.0398 15.1172C19.0398 14.8079 18.789 14.5572 18.4798 14.5572C18.1705 14.5572 17.9198 14.8079 17.9198 15.1172Z" fill="white"/>
</svg>
