<svg width="149" height="149" viewBox="0 0 149 149" fill="none" xmlns="http://www.w3.org/2000/svg">
<g clip-path="url(#clip0_1130_460)">
<path fill-rule="evenodd" clip-rule="evenodd" d="M117.21 57.1675L126.387 69.2132C127.806 71.0759 127.446 73.7364 125.584 75.1554L94.0816 99.1536L61.5004 123.974C59.6377 125.393 56.9772 125.033 55.5582 123.171L46.3818 111.125C51.97 106.868 53.0491 98.8866 48.7919 93.2984C44.5348 87.7101 36.5536 86.631 30.9653 90.8882L22.1625 79.333C20.7435 77.4702 21.1032 74.8098 22.9659 73.3908L22.9746 73.3842L55.239 48.9355L87.0404 24.5788C88.8995 23.155 91.5608 23.5078 92.9847 25.3668L92.9913 25.3756L101.794 36.9307C96.2058 41.1878 95.1268 49.1691 99.3839 54.7573C103.641 60.3455 111.622 61.4246 117.21 57.1675ZM69.3607 43.3338L73.2292 48.4118C73.9387 49.3432 75.2689 49.5231 76.2003 48.8135C77.1317 48.104 77.3115 46.7738 76.602 45.8424L72.7335 40.7644C72.024 39.833 70.6938 39.6532 69.7624 40.3627C68.831 41.0722 68.6512 42.4024 69.3607 43.3338ZM106.15 84.6296L102.296 79.5704C101.587 78.639 100.256 78.4592 99.3249 79.1687C98.3936 79.8782 98.2137 81.2085 98.9232 82.1398L102.777 87.199C103.487 88.1304 104.817 88.3102 105.748 87.6007C106.68 86.8912 106.86 85.561 106.15 84.6296ZM78.368 55.1574L83.5068 61.903C84.2163 62.8344 85.5466 63.0143 86.4779 62.3047C87.4093 61.5952 87.5891 60.265 86.8796 59.3336L81.7408 52.588C81.0313 51.6567 79.7011 51.4768 78.7697 52.1863C77.8383 52.8959 77.6585 54.2261 78.368 55.1574ZM88.6456 68.6486L93.7844 75.3942C94.494 76.3256 95.8242 76.5054 96.7555 75.7959C97.6869 75.0864 97.8668 73.7562 97.1572 72.8248L92.0184 66.0792C91.3089 65.1479 89.9787 64.968 89.0473 65.6775C88.116 66.3871 87.9361 67.7173 88.6456 68.6486Z" fill="#FFE976"/>
</g>
<defs>
<clipPath id="clip0_1130_460">
<rect width="106" height="106" fill="white" transform="translate(84.3203) rotate(52.6998)"/>
</clipPath>
</defs>
</svg>
