<svg width="384" height="111" viewBox="0 0 384 111" fill="none" xmlns="http://www.w3.org/2000/svg">
<g clip-path="url(#clip0_1231_16)">
<path d="M353.199 80.8449C345.115 80.8449 340.495 76.2252 340.495 68.1407V35.6873H323.402V23.0986H340.495V4.38879H356.087V23.0986H379.878V35.6873H356.087V63.29C356.087 66.7548 357.242 67.9097 360.706 67.9097H383.343V80.8449H353.199Z" fill="white"/>
<path d="M321.238 51.3944V57.0536H263.723C266.264 64.7916 274.117 69.4113 284.627 69.4113H286.706C297.1 69.4113 302.182 65.9465 304.03 62.5972H320.661C318.466 72.6451 308.418 82 285.666 82C262.683 82 247.092 70.7972 247.092 51.048C247.092 32.4537 265.109 21.9438 285.666 21.9438C308.303 21.9438 321.238 34.5325 321.238 51.3944ZM264.069 45.2733H304.954C304.607 38.6903 297.1 34.5325 286.706 34.5325H284.627C273.54 34.5325 266.61 38.8058 264.069 45.2733Z" fill="white"/>
<path d="M228.948 80.8448L201.692 54.5125L193.492 59.5942V80.8448H177.9V0H193.492V44.1182L225.599 23.0985H251.123L214.627 46.197L252.624 80.8448H228.948Z" fill="white"/>
<path d="M132.433 82C107.602 82 94.0898 69.1803 94.0898 51.9719C94.0898 34.9945 108.411 21.9438 132.433 21.9438C153.453 21.9438 166.388 30.9523 168.236 43.31H151.836C149.757 37.5353 142.712 35.11 133.588 35.11H131.509C116.957 35.11 109.912 42.9635 109.912 51.9719C109.912 60.8648 116.957 68.8338 131.509 68.8338H133.588C143.174 68.8338 150.566 65.369 151.721 60.6339H168.121C166.273 71.7211 155.763 82 132.433 82Z" fill="white"/>
<path d="M67.6289 16.2845V0H84.6063V16.2845H67.6289ZM68.3219 80.8448V23.0985H83.9134V80.8448H68.3219Z" fill="white"/>
<path d="M29.7971 80.8449C21.7126 80.8449 17.0929 76.2252 17.0929 68.1407V35.6873H0V23.0986H17.0929V4.38879H32.6844V23.0986H56.4759V35.6873H32.6844V63.29C32.6844 66.7548 33.8393 67.9097 37.3041 67.9097H59.9406V80.8449H29.7971Z" fill="white"/>
</g>
<defs>
<clipPath id="clip0_1231_16">
<rect width="383.34" height="111" fill="white"/>
</clipPath>
</defs>
</svg>
