<svg width="107" height="102" viewBox="0 0 107 102" fill="none" xmlns="http://www.w3.org/2000/svg">
<path fill-rule="evenodd" clip-rule="evenodd" d="M96.2105 34.1675L105.387 46.2132C106.806 48.0759 106.446 50.7364 104.584 52.1554L73.0816 76.1536L40.5004 100.974C38.6377 102.393 35.9772 102.033 34.5582 100.171L25.3818 88.125C30.97 83.8678 32.0491 75.8866 27.7919 70.2984C23.5348 64.7101 15.5536 63.631 9.96533 67.8882L1.16254 56.333C-0.256502 54.4702 0.103192 51.8098 1.96593 50.3908L1.97459 50.3842L34.239 25.9355L66.0404 1.57883C67.8995 0.154975 70.5608 0.50778 71.9847 2.36685L71.9913 2.37557L80.7941 13.9307C75.2058 18.1878 74.1268 26.1691 78.3839 31.7573C82.641 37.3455 90.6223 38.4246 96.2105 34.1675ZM48.3607 20.3338L52.2292 25.4118C52.9387 26.3432 54.2689 26.5231 55.2003 25.8135C56.1317 25.104 56.3115 23.7738 55.602 22.8424L51.7335 17.7644C51.024 16.833 49.6938 16.6532 48.7624 17.3627C47.831 18.0722 47.6512 19.4024 48.3607 20.3338ZM85.1502 61.6296L81.296 56.5704C80.5865 55.639 79.2563 55.4592 78.3249 56.1687C77.3936 56.8782 77.2137 58.2085 77.9232 59.1398L81.7774 64.199C82.4869 65.1304 83.8171 65.3102 84.7485 64.6007C85.6798 63.8912 85.8597 62.561 85.1502 61.6296ZM57.368 32.1574L62.5068 38.903C63.2163 39.8344 64.5466 40.0143 65.4779 39.3047C66.4093 38.5952 66.5891 37.265 65.8796 36.3336L60.7408 29.588C60.0313 28.6567 58.7011 28.4768 57.7697 29.1863C56.8383 29.8959 56.6585 31.2261 57.368 32.1574ZM67.6456 45.6486L72.7844 52.3942C73.494 53.3256 74.8242 53.5054 75.7555 52.7959C76.6869 52.0864 76.8668 50.7562 76.1572 49.8248L71.0184 43.0792C70.3089 42.1479 68.9787 41.968 68.0473 42.6775C67.116 43.3871 66.9361 44.7173 67.6456 45.6486Z" fill="#FFE976"/>
</svg>
