<svg width="680" height="43" viewBox="0 0 680 43" fill="none" xmlns="http://www.w3.org/2000/svg">
<path d="M63.96 -2.86102e-06H72.84L58.44 42H48.36L36.84 9.78L25.38 42H15.24L0.84 -2.86102e-06H9.9L20.52 31.68L31.68 -2.86102e-06H42.18L53.58 31.98L63.96 -2.86102e-06ZM110.14 26.7V29.64H80.2598C81.5798 33.66 85.6598 36.06 91.1198 36.06H92.1998C97.5998 36.06 100.24 34.26 101.2 32.52H109.84C108.7 37.74 103.48 42.6 91.6598 42.6C79.7198 42.6 71.6198 36.78 71.6198 26.52C71.6198 16.86 80.9798 11.4 91.6598 11.4C103.42 11.4 110.14 17.94 110.14 26.7ZM80.4398 23.52H101.68C101.5 20.1 97.5998 17.94 92.1998 17.94H91.1198C85.3598 17.94 81.7598 20.16 80.4398 23.52ZM115.687 42V-2.86102e-06H123.787V42H115.687ZM148.993 42.6C136.093 42.6 129.073 35.94 129.073 27C129.073 18.18 136.513 11.4 148.993 11.4C159.913 11.4 166.633 16.08 167.593 22.5H159.073C157.993 19.5 154.333 18.24 149.593 18.24H148.513C140.953 18.24 137.293 22.32 137.293 27C137.293 31.62 140.953 35.76 148.513 35.76H149.593C154.573 35.76 158.413 33.96 159.013 31.5H167.533C166.573 37.26 161.113 42.6 148.993 42.6ZM191.394 42.6C179.574 42.6 170.514 36.12 170.514 27C170.514 17.82 179.574 11.4 191.394 11.4C203.214 11.4 212.394 17.82 212.394 27C212.394 36.12 203.214 42.6 191.394 42.6ZM190.914 36.06H191.994C199.554 36.06 204.174 32.4 204.174 27C204.174 21.6 199.554 17.94 191.994 17.94H190.914C183.414 17.94 178.734 21.6 178.734 27C178.734 32.4 183.414 36.06 190.914 36.06ZM217.63 42V12H225.73V16.68C227.89 13.38 231.67 11.4 237.43 11.4C243.31 11.4 248.17 13.5 250.69 18C253.51 13.32 259.15 11.4 265.57 11.4C277.51 11.4 281.53 17.64 281.53 25.68V42H273.43V25.98C273.43 21.24 271.03 17.94 264.61 17.94H263.53C257.29 17.94 253.63 21.9 253.63 28.08V42H245.53V25.98C245.53 21.24 242.65 17.94 235.99 17.94H234.91C229.03 17.94 225.73 21.9 225.73 28.08V42H217.63ZM324.851 26.7V29.64H294.971C296.291 33.66 300.371 36.06 305.831 36.06H306.911C312.311 36.06 314.951 34.26 315.911 32.52H324.551C323.411 37.74 318.191 42.6 306.371 42.6C294.431 42.6 286.331 36.78 286.331 26.52C286.331 16.86 295.691 11.4 306.371 11.4C318.131 11.4 324.851 17.94 324.851 26.7ZM295.151 23.52H316.391C316.211 20.1 312.311 17.94 306.911 17.94H305.831C300.071 17.94 296.471 20.16 295.151 23.52ZM356.94 42C352.74 42 350.34 39.6 350.34 35.4V18.54H341.46V12H350.34V2.28H358.44V12H370.8V18.54H358.44V32.88C358.44 34.68 359.04 35.28 360.84 35.28H372.6V42H356.94ZM395.265 42.6C383.445 42.6 374.385 36.12 374.385 27C374.385 17.82 383.445 11.4 395.265 11.4C407.085 11.4 416.265 17.82 416.265 27C416.265 36.12 407.085 42.6 395.265 42.6ZM394.785 36.06H395.865C403.425 36.06 408.045 32.4 408.045 27C408.045 21.6 403.425 17.94 395.865 17.94H394.785C387.285 17.94 382.605 21.6 382.605 27C382.605 32.4 387.285 36.06 394.785 36.06ZM438.535 42V-2.86102e-06H466.675C476.455 -2.86102e-06 482.755 5.46 482.755 13.38C482.755 21.42 476.695 26.7 466.855 26.7H447.055V42H438.535ZM447.055 19.26H465.715C471.355 19.26 474.115 17.1 474.115 13.38C474.115 9.66 471.355 7.44 465.715 7.44H447.055V19.26ZM505.412 42.6C493.592 42.6 484.532 36.12 484.532 27C484.532 17.82 493.592 11.4 505.412 11.4C517.232 11.4 526.412 17.82 526.412 27C526.412 36.12 517.232 42.6 505.412 42.6ZM504.932 36.06H506.012C513.572 36.06 518.192 32.4 518.192 27C518.192 21.6 513.572 17.94 506.012 17.94H504.932C497.432 17.94 492.752 21.6 492.752 27C492.752 32.4 497.432 36.06 504.932 36.06ZM549.528 42.6C536.628 42.6 529.608 35.94 529.608 27C529.608 18.18 537.048 11.4 549.528 11.4C560.448 11.4 567.168 16.08 568.128 22.5H559.608C558.528 19.5 554.868 18.24 550.128 18.24H549.048C541.488 18.24 537.828 22.32 537.828 27C537.828 31.62 541.488 35.76 549.048 35.76H550.128C555.108 35.76 558.948 33.96 559.548 31.5H568.068C567.108 37.26 561.648 42.6 549.528 42.6ZM599.669 42L585.509 28.32L581.249 30.96V42H573.149V-2.86102e-06H581.249V22.92L597.929 12H611.189L592.229 24L611.969 42H599.669ZM647.616 26.7V29.64H617.736C619.056 33.66 623.136 36.06 628.596 36.06H629.676C635.076 36.06 637.716 34.26 638.676 32.52H647.316C646.176 37.74 640.956 42.6 629.136 42.6C617.196 42.6 609.096 36.78 609.096 26.52C609.096 16.86 618.456 11.4 629.136 11.4C640.896 11.4 647.616 17.94 647.616 26.7ZM617.916 23.52H639.156C638.976 20.1 635.076 17.94 629.676 17.94H628.596C622.836 17.94 619.236 20.16 617.916 23.52ZM664.219 42C660.019 42 657.619 39.6 657.619 35.4V18.54H648.739V12H657.619V2.28H665.719V12H678.079V18.54H665.719V32.88C665.719 34.68 666.319 35.28 668.119 35.28H679.879V42H664.219Z" fill="#262626"/>
</svg>
